<mxfile host="65bd71144e">
    <diagram id="YBt0uZb8d742n9E7hVaQ" name="第 1 页">
        <mxGraphModel dx="1928" dy="681" grid="1" gridSize="10" guides="1" tooltips="1" connect="1" arrows="1" fold="1" page="1" pageScale="1" pageWidth="827" pageHeight="1169" background="#ffffff" math="0" shadow="0">
            <root>
                <mxCell id="0"/>
                <mxCell id="1" parent="0"/>
                <mxCell id="6" value="" style="edgeStyle=none;html=1;fontColor=#000000;entryX=0;entryY=0.5;entryDx=0;entryDy=0;exitX=1;exitY=0.5;exitDx=0;exitDy=0;fontSize=6;strokeColor=#000000;strokeWidth=4;" parent="1" source="73" target="74" edge="1">
                    <mxGeometry relative="1" as="geometry">
                        <mxPoint x="-250" y="470" as="sourcePoint"/>
                        <mxPoint x="-180" y="470" as="targetPoint"/>
                        <Array as="points">
                            <mxPoint x="-210" y="470"/>
                        </Array>
                    </mxGeometry>
                </mxCell>
                <mxCell id="8" value="" style="edgeStyle=none;html=1;fontColor=#000000;fontSize=6;strokeColor=#000000;strokeWidth=4;" parent="1" edge="1">
                    <mxGeometry relative="1" as="geometry">
                        <mxPoint x="-60" y="470" as="sourcePoint"/>
                        <mxPoint x="20" y="470" as="targetPoint"/>
                    </mxGeometry>
                </mxCell>
                <mxCell id="34" style="edgeStyle=none;html=1;entryX=0;entryY=0.5;entryDx=0;entryDy=0;fontSize=6;fontColor=#000000;exitX=1;exitY=0.5;exitDx=0;exitDy=0;strokeColor=#000000;strokeWidth=4;" parent="1" source="75" target="76" edge="1">
                    <mxGeometry relative="1" as="geometry">
                        <mxPoint x="140" y="470" as="sourcePoint"/>
                        <mxPoint x="230" y="470" as="targetPoint"/>
                    </mxGeometry>
                </mxCell>
                <mxCell id="9" value="VBAT" style="text;html=1;align=center;verticalAlign=middle;resizable=0;points=[];autosize=1;strokeColor=none;fillColor=none;fontColor=#000000;" parent="1" vertex="1">
                    <mxGeometry x="-240" y="480" width="50" height="30" as="geometry"/>
                </mxCell>
                <mxCell id="11" value="VCC" style="text;html=1;align=center;verticalAlign=middle;resizable=0;points=[];autosize=1;strokeColor=none;fillColor=none;fontColor=#000000;" parent="1" vertex="1">
                    <mxGeometry x="-50" y="470" width="50" height="30" as="geometry"/>
                </mxCell>
                <mxCell id="18" value="" style="edgeStyle=none;html=1;fontColor=#000000;fontSize=6;strokeColor=#000000;strokeWidth=4;entryX=0.5;entryY=0;entryDx=0;entryDy=0;" parent="1" target="77" edge="1">
                    <mxGeometry relative="1" as="geometry">
                        <mxPoint x="290" y="500" as="sourcePoint"/>
                        <mxPoint x="290" y="640" as="targetPoint"/>
                    </mxGeometry>
                </mxCell>
                <mxCell id="29" value="" style="edgeStyle=none;html=1;fontSize=6;fontColor=#000000;exitX=1;exitY=0.5;exitDx=0;exitDy=0;entryX=0.5;entryY=0;entryDx=0;entryDy=0;strokeColor=#000000;strokeWidth=4;rounded=0;" parent="1" source="75" edge="1" target="31">
                    <mxGeometry relative="1" as="geometry">
                        <mxPoint x="165" y="565" as="targetPoint"/>
                        <Array as="points">
                            <mxPoint x="170" y="470"/>
                        </Array>
                    </mxGeometry>
                </mxCell>
                <mxCell id="16" value="+5V" style="text;html=1;align=center;verticalAlign=middle;resizable=0;points=[];autosize=1;strokeColor=none;fillColor=none;fontColor=#000000;" parent="1" vertex="1">
                    <mxGeometry x="145" y="440" width="50" height="30" as="geometry"/>
                </mxCell>
                <mxCell id="33" style="edgeStyle=none;html=1;fontSize=6;fontColor=#000000;strokeColor=#000000;strokeWidth=4;" parent="1" source="19" edge="1">
                    <mxGeometry relative="1" as="geometry">
                        <mxPoint x="230" y="585" as="targetPoint"/>
                    </mxGeometry>
                </mxCell>
                <mxCell id="19" value="VCC_3V3" style="text;html=1;align=center;verticalAlign=middle;resizable=0;points=[];autosize=1;strokeColor=none;fillColor=none;rotation=90;fontColor=#000000;" parent="1" vertex="1">
                    <mxGeometry x="240" y="570" width="80" height="30" as="geometry"/>
                </mxCell>
                <mxCell id="21" value="&lt;font style=&quot;font-size: 12px;&quot;&gt;1A&lt;/font&gt;" style="text;html=1;align=center;verticalAlign=middle;resizable=0;points=[];autosize=1;strokeColor=none;fillColor=none;rotation=90;fontColor=#000000;strokeWidth=4;fontSize=12;" parent="1" vertex="1">
                    <mxGeometry x="295" y="530" width="40" height="30" as="geometry"/>
                </mxCell>
                <mxCell id="40" value="" style="edgeStyle=none;html=1;fontSize=6;fontColor=#000000;entryX=1;entryY=0.5;entryDx=0;entryDy=0;strokeColor=#000000;strokeWidth=4;" parent="1" source="31" target="78" edge="1">
                    <mxGeometry relative="1" as="geometry">
                        <mxPoint x="25" y="590" as="targetPoint"/>
                    </mxGeometry>
                </mxCell>
                <mxCell id="31" value="TJA1044T×3" style="rounded=0;whiteSpace=wrap;html=1;fontSize=12;fontColor=#000000;fillColor=#E6E6E6;" parent="1" vertex="1">
                    <mxGeometry x="110" y="570" width="120" height="40" as="geometry"/>
                </mxCell>
                <mxCell id="35" value="&lt;font style=&quot;font-size: 12px;&quot;&gt;600mA&lt;br style=&quot;font-size: 12px;&quot;&gt;&lt;/font&gt;" style="text;html=1;align=center;verticalAlign=middle;resizable=0;points=[];autosize=1;strokeColor=none;fillColor=none;rotation=0;fontColor=#000000;fontSize=12;" parent="1" vertex="1">
                    <mxGeometry x="170" y="490" width="60" height="30" as="geometry"/>
                </mxCell>
                <mxCell id="38" value="&lt;font style=&quot;font-size: 12px;&quot;&gt;CAN_RX&amp;amp;CAN_TX&lt;/font&gt;" style="text;html=1;align=center;verticalAlign=middle;resizable=0;points=[];autosize=1;strokeColor=none;fillColor=none;rotation=0;fontColor=#000000;fontSize=12;" parent="1" vertex="1">
                    <mxGeometry x="105" y="630" width="130" height="30" as="geometry"/>
                </mxCell>
                <mxCell id="41" value="&lt;font style=&quot;font-size: 12px;&quot;&gt;CAN_H&amp;amp;CAN_L&lt;/font&gt;" style="text;html=1;align=center;verticalAlign=middle;resizable=0;points=[];autosize=1;strokeColor=none;fillColor=none;rotation=0;fontColor=#000000;fontSize=12;" parent="1" vertex="1">
                    <mxGeometry y="560" width="110" height="30" as="geometry"/>
                </mxCell>
                <mxCell id="44" value="&lt;font style=&quot;font-size: 12px;&quot;&gt;UART×2&lt;br style=&quot;font-size: 12px;&quot;&gt;&lt;/font&gt;" style="text;html=1;align=center;verticalAlign=middle;resizable=0;points=[];autosize=1;strokeColor=none;fillColor=none;rotation=0;fontColor=#000000;fontSize=12;" parent="1" vertex="1">
                    <mxGeometry x="15" y="640" width="70" height="30" as="geometry"/>
                </mxCell>
                <mxCell id="45" value="" style="edgeStyle=segmentEdgeStyle;endArrow=classic;html=1;curved=0;rounded=1;endSize=8;startSize=8;fontSize=6;fontColor=#000000;exitX=0;exitY=0.5;exitDx=0;exitDy=0;startArrow=none;strokeColor=#000000;strokeWidth=4;entryX=1;entryY=0.5;entryDx=0;entryDy=0;" parent="1" source="80" edge="1" target="46">
                    <mxGeometry width="50" height="50" relative="1" as="geometry">
                        <mxPoint x="280" y="760" as="sourcePoint"/>
                        <mxPoint x="140" y="730" as="targetPoint"/>
                        <Array as="points"/>
                    </mxGeometry>
                </mxCell>
                <mxCell id="46" value="KF2510 3Pin" style="rounded=0;whiteSpace=wrap;html=1;fontSize=12;fontColor=#000000;fillColor=#E6E6E6;fillStyle=auto;gradientColor=none;" parent="1" vertex="1">
                    <mxGeometry x="-130" y="710" width="120" height="40" as="geometry"/>
                </mxCell>
                <mxCell id="49" value="" style="edgeStyle=segmentEdgeStyle;endArrow=classic;html=1;rounded=0;endSize=8;startSize=8;fontSize=6;fontColor=#000000;exitX=0.367;exitY=1.041;exitDx=0;exitDy=0;exitPerimeter=0;strokeColor=#000000;strokeWidth=4;" parent="1" target="80" edge="1">
                    <mxGeometry width="50" height="50" relative="1" as="geometry">
                        <mxPoint x="274.03999999999996" y="702.46" as="sourcePoint"/>
                        <mxPoint x="240" y="730" as="targetPoint"/>
                        <Array as="points">
                            <mxPoint x="274" y="730"/>
                        </Array>
                    </mxGeometry>
                </mxCell>
                <mxCell id="50" value="&lt;font style=&quot;font-size: 13px;&quot;&gt;DBUS串口&lt;br style=&quot;font-size: 13px;&quot;&gt;&lt;/font&gt;" style="text;html=1;align=center;verticalAlign=middle;resizable=0;points=[];autosize=1;strokeColor=none;fillColor=none;rotation=0;fontColor=#000000;fontSize=13;" parent="1" vertex="1">
                    <mxGeometry x="195" y="730" width="90" height="30" as="geometry"/>
                </mxCell>
                <mxCell id="53" value="XT30" style="text;html=1;align=center;verticalAlign=middle;resizable=0;points=[];autosize=1;strokeColor=none;fillColor=none;fontColor=#000000;" parent="1" vertex="1">
                    <mxGeometry x="-240" y="440" width="50" height="30" as="geometry"/>
                </mxCell>
                <mxCell id="73" value="24V输入" style="rounded=0;whiteSpace=wrap;html=1;fontColor=#000000;fillColor=#E6E6E6;fillStyle=auto;gradientColor=none;" vertex="1" parent="1">
                    <mxGeometry x="-370" y="440" width="120" height="60" as="geometry"/>
                </mxCell>
                <mxCell id="74" value="防反接&amp;amp;缓启动" style="rounded=0;whiteSpace=wrap;html=1;fillColor=#E6E6E6;fontColor=#000000;fillStyle=auto;gradientColor=none;" vertex="1" parent="1">
                    <mxGeometry x="-180" y="440" width="120" height="60" as="geometry"/>
                </mxCell>
                <mxCell id="75" value="LV2842XLVDDCR" style="rounded=0;whiteSpace=wrap;html=1;fillColor=#E6E6E6;fontColor=#000000;fillStyle=auto;gradientColor=none;" vertex="1" parent="1">
                    <mxGeometry x="20" y="440" width="120" height="60" as="geometry"/>
                </mxCell>
                <mxCell id="76" value="AMS1117-3.3" style="rounded=0;whiteSpace=wrap;html=1;fillColor=#E6E6E6;fontColor=#000000;fillStyle=auto;gradientColor=none;" vertex="1" parent="1">
                    <mxGeometry x="230" y="440" width="120" height="60" as="geometry"/>
                </mxCell>
                <mxCell id="77" value="STM32G473RCT6" style="rounded=0;whiteSpace=wrap;html=1;fillColor=#E6E6E6;fontColor=#000000;fillStyle=auto;gradientColor=none;" vertex="1" parent="1">
                    <mxGeometry x="230" y="640" width="120" height="60" as="geometry"/>
                </mxCell>
                <mxCell id="78" value="GH1.25 2Pin×3" style="rounded=0;whiteSpace=wrap;html=1;fontSize=12;fontColor=#000000;fillColor=#E6E6E6;fillStyle=auto;gradientColor=none;" vertex="1" parent="1">
                    <mxGeometry x="-135" y="570" width="120" height="40" as="geometry"/>
                </mxCell>
                <mxCell id="52" value="&lt;font style=&quot;font-size: 12px;&quot;&gt;DBUS_RX&lt;br style=&quot;font-size: 12px;&quot;&gt;&lt;/font&gt;" style="text;html=1;align=center;verticalAlign=middle;resizable=0;points=[];autosize=1;strokeColor=none;fillColor=none;rotation=0;fontColor=#000000;fontSize=12;" parent="1" vertex="1">
                    <mxGeometry x="15" y="700" width="80" height="30" as="geometry"/>
                </mxCell>
                <mxCell id="89" value="" style="endArrow=classic;html=1;rounded=0;strokeColor=#000000;strokeWidth=4;fontSize=12;fontColor=#000000;entryX=0.5;entryY=1;entryDx=0;entryDy=0;exitX=0;exitY=0.25;exitDx=0;exitDy=0;" edge="1" parent="1" source="77" target="31">
                    <mxGeometry width="50" height="50" relative="1" as="geometry">
                        <mxPoint x="170" y="670" as="sourcePoint"/>
                        <mxPoint x="60" y="560" as="targetPoint"/>
                        <Array as="points">
                            <mxPoint x="170" y="655"/>
                        </Array>
                    </mxGeometry>
                </mxCell>
                <mxCell id="90" value="GH1.25 4Pin×2" style="rounded=0;whiteSpace=wrap;html=1;fontSize=12;fontColor=#000000;fillColor=#E6E6E6;fillStyle=auto;gradientColor=none;" vertex="1" parent="1">
                    <mxGeometry x="-130" y="650" width="120" height="40" as="geometry"/>
                </mxCell>
                <mxCell id="91" value="" style="edgeStyle=segmentEdgeStyle;endArrow=none;html=1;curved=0;rounded=1;endSize=8;startSize=8;fontSize=6;fontColor=#000000;exitX=0;exitY=0.5;exitDx=0;exitDy=0;startArrow=none;strokeColor=#000000;strokeWidth=4;" edge="1" parent="1" target="80">
                    <mxGeometry width="50" height="50" relative="1" as="geometry">
                        <mxPoint x="190" y="730" as="sourcePoint"/>
                        <mxPoint y="730" as="targetPoint"/>
                        <Array as="points"/>
                    </mxGeometry>
                </mxCell>
                <mxCell id="80" value="&lt;font style=&quot;font-size: 12px;&quot;&gt;三极管取反&lt;/font&gt;" style="rounded=0;whiteSpace=wrap;html=1;fontSize=12;fontColor=#000000;fillColor=#E6E6E6;fillStyle=auto;gradientColor=none;" vertex="1" parent="1">
                    <mxGeometry x="100" y="710" width="80" height="40" as="geometry"/>
                </mxCell>
                <mxCell id="92" value="" style="endArrow=classic;html=1;rounded=0;strokeColor=#000000;strokeWidth=4;fontSize=13;fontColor=#000000;entryX=1;entryY=0.5;entryDx=0;entryDy=0;exitX=0;exitY=0.5;exitDx=0;exitDy=0;" edge="1" parent="1" source="77" target="90">
                    <mxGeometry width="50" height="50" relative="1" as="geometry">
                        <mxPoint x="80" y="580" as="sourcePoint"/>
                        <mxPoint x="130" y="530" as="targetPoint"/>
                    </mxGeometry>
                </mxCell>
            </root>
        </mxGraphModel>
    </diagram>
</mxfile>